<svg width="78" height="78" viewBox="0 0 78 78" fill="none" xmlns="http://www.w3.org/2000/svg">
<g clip-path="url(#clip0)">
<path d="M5.20067 71.5V75.4C5.20067 76.836 6.36471 78 7.80072 78H70.2007C71.6367 78 72.8008 76.836 72.8008 75.4V71.5H5.20067Z" fill="#394D5C"/>
<path d="M5.20067 71.5V75.4C5.20067 76.836 6.36471 78 7.80072 78H70.2007C71.6367 78 72.8008 76.836 72.8008 75.4V71.5H5.20067Z" fill="#394D5C"/>
<path d="M69.1915 71.5V75.4C69.1915 76.836 68.0274 78 66.5914 78H70.1998C71.6358 78 72.7999 76.836 72.7999 75.4V71.5H69.1915Z" fill="#2C4252"/>
<path d="M71.4999 72.8001H6.50005C5.7089 72.8001 5.10123 72.0993 5.21312 71.3162L5.76838 67.5045L6.8844 66.3072L6.10706 65.1793L10.6973 33.6714L11.6587 32.4585L11.0368 31.3413L14.6863 6.2929L15.6141 5.31076L15.0157 4.03247L15.4405 1.11603C15.5319 0.475705 16.0804 1.52588e-05 16.7273 1.52588e-05H19.6191L20.7632 0.784723L21.9621 1.52588e-05H27.4304L28.4846 0.784723L29.7742 1.52588e-05H32.6759L33.8972 0.784723L35.0612 1.52588e-05H42.965L44.2831 0.627782L45.3398 1.52588e-05H48.2304L49.4184 0.784723L50.5766 1.52588e-05H56.0299L57.2451 0.627782L58.3828 1.52588e-05H58.8836L72.7867 71.3162C72.8988 72.0993 72.2909 72.8001 71.4999 72.8001Z" fill="#0E8742"/>
<path d="M72.7869 71.3162L72.233 67.5147L71.1296 66.4036L71.8953 65.1956L67.3036 33.6792L66.2185 32.6952L66.9618 31.3336L63.3168 6.3155L62.3854 5.30872L62.9802 4.00501L62.5593 1.11618C62.4678 0.475705 61.9193 1.52588e-05 61.2724 1.52588e-05H58.3765L57.6921 0.0836652C57.9565 0.0836652 58.1764 0.0794277 58.3835 0.217222C58.683 0.416381 58.8967 0.737484 58.9509 1.11603L69.1785 71.316C69.2904 72.0992 68.6827 72.7999 67.8915 72.7999H71.5001C72.2909 72.8001 72.8988 72.0993 72.7869 71.3162Z" fill="#0E8742"/>
<path d="M38.9998 40.1771C34.0499 40.1771 30.0228 36.7332 30.0228 32.5001C30.0228 28.2669 34.0499 24.823 38.9998 24.823C43.9498 24.823 47.9769 28.2669 47.9769 32.5001C47.9769 36.7332 43.9498 40.1771 38.9998 40.1771ZM38.9998 27.1771C35.348 27.1771 32.3769 29.565 32.3769 32.5001C32.3769 35.4352 35.348 37.823 38.9998 37.823C42.6517 37.823 45.6228 35.4351 45.6228 32.5001C45.6228 29.5651 42.6519 27.1771 38.9998 27.1771Z" fill="#FAFAFA"/>
<path d="M49.3999 58.3765C48.7497 58.3765 48.2228 57.8495 48.2228 57.1994C48.2228 53.5477 44.0855 50.577 38.9998 50.577C33.9143 50.577 29.7768 53.5477 29.7768 57.1994C29.7768 57.8495 29.2498 58.3765 28.5998 58.3765C27.9497 58.3765 27.4227 57.8495 27.4227 57.1994C27.4227 52.2497 32.6162 48.2228 38.9998 48.2228C45.3834 48.2228 50.577 52.2497 50.577 57.1994C50.577 57.8495 50.0499 58.3765 49.3999 58.3765Z" fill="#FAFAFA"/>
<path d="M38.9998 16.7771C34.7667 16.7771 31.3227 13.9163 31.3227 10.4001C31.3227 9.75002 31.8497 9.22301 32.4998 9.22301C33.1498 9.22301 33.6769 9.75002 33.6769 10.4001C33.6769 12.6183 36.0647 14.423 38.9998 14.423C41.935 14.423 44.3228 12.6183 44.3228 10.4001C44.3228 9.75002 44.8497 9.22301 45.4999 9.22301C46.1501 9.22301 46.677 9.75002 46.677 10.4001C46.677 13.9163 43.233 16.7771 38.9998 16.7771Z" fill="#FAFAFA"/>
<path d="M33.11 6.37671L44.89 6.37624C45.2314 6.37624 45.5556 6.22809 45.7792 5.97039C46.0029 5.71253 46.1035 5.37056 46.0553 5.03266L45.3373 1.52588e-05H42.9499L43.5328 4.02227L34.467 4.02259L35.0631 1.52588e-05H32.676L31.9445 5.03329C31.8963 5.37103 31.9971 5.71316 32.2206 5.97102C32.4442 6.22872 32.7688 6.37671 33.11 6.37671Z" fill="#FAFAFA"/>
<path d="M27.1142 11.577L50.8853 11.576C51.2267 11.576 51.5509 11.428 51.7746 11.1702C51.9982 10.9123 52.0988 10.5703 52.0506 10.2325L50.5889 1.52588e-05H48.2241C48.2241 0.0551018 48.2266 0.110502 48.2346 0.16653L49.5283 9.22206L28.4712 9.22285L29.7651 0.16653C29.7731 0.110502 29.7756 0.0551018 29.7756 1.52588e-05H27.4108L25.9489 10.2336C25.9007 10.5713 26.0015 10.9134 26.2249 11.1713C26.4486 11.429 26.773 11.577 27.1142 11.577Z" fill="#FAFAFA"/>
<path d="M15.5998 4.0229C15.4066 4.0229 15.2127 4.00909 15.0229 3.98194L14.6836 6.31142C14.6844 6.31158 14.685 6.31174 14.6858 6.31189C14.9868 6.35505 15.2943 6.37703 15.5998 6.37703C19.1161 6.37703 21.9768 3.51629 21.9768 1.52588e-05H19.6227C19.6227 2.21823 17.818 4.0229 15.5998 4.0229Z" fill="#FAFAFA"/>
<path d="M55.7124 72.634L54.2266 62.2332C54.1438 61.6533 53.6472 61.2226 53.0613 61.2226L24.9385 61.223C24.3528 61.223 23.8561 61.6538 23.7732 62.2337L22.2874 72.6336C22.2794 72.6896 22.2769 72.745 22.2769 72.8001H24.6417L25.9592 63.5771L52.0404 63.5766L53.358 72.7999H55.7229C55.7228 72.7451 55.7202 72.6899 55.7124 72.634Z" fill="#FAFAFA"/>
<path d="M60.9651 72.6336L58.7365 57.0331C58.6536 56.4532 58.1571 56.0225 57.5712 56.0225L20.4283 56.023C19.8426 56.023 19.3459 56.4538 19.263 57.0336L17.0344 72.6336C17.0264 72.6896 17.0239 72.745 17.0239 72.7999H19.3887L21.4491 58.377L56.5502 58.3765L58.6106 72.7999H60.9756C60.9756 72.745 60.9731 72.6896 60.9651 72.6336Z" fill="#FAFAFA"/>
<path d="M62.3998 6.37703C62.7054 6.37703 63.0128 6.35505 63.3138 6.31189C63.3146 6.31174 63.3154 6.31158 63.3162 6.31142L62.9769 3.98194C62.7872 4.00909 62.5932 4.0229 62.3998 4.0229C60.1816 4.0229 58.3769 2.21823 58.3769 1.52588e-05H56.0228C56.0228 3.51629 58.8836 6.37703 62.3998 6.37703Z" fill="#FAFAFA"/>
<path d="M12.8764 72.7994C12.8764 68.9023 9.96908 65.6324 6.10754 65.1769L5.76839 67.5049C5.78094 67.5067 5.79303 67.5096 5.80574 67.511C8.49462 67.8148 10.5223 70.0884 10.5223 72.7994V72.7999H12.8764C12.8764 72.7999 12.8764 72.7996 12.8764 72.7994Z" fill="#FAFAFA"/>
<path d="M58.377 1.52588e-05H57.6638C57.9286 1.52588e-05 58.1759 0.0806833 58.3831 0.218635C58.3792 0.146128 58.377 0.073307 58.377 1.52588e-05Z" fill="#D0E2ED"/>
<path d="M62.3998 4.0229C61.0528 4.0229 59.8591 3.35668 59.1287 2.33719L59.6245 5.74047C60.464 6.14805 61.4056 6.37702 62.3998 6.37702C62.7054 6.37702 63.0128 6.35505 63.3139 6.31189L63.3162 6.31142L63.1003 4.82927L62.9767 3.98194C62.787 4.00909 62.593 4.0229 62.3998 4.0229Z" fill="#D0E2ED"/>
<path d="M10.6967 33.6772H67.3032L66.9601 31.3231H11.0397L10.6967 33.6772Z" fill="#FAFAFA"/>
<path d="M72.2316 67.5049L71.8924 65.1769C68.0307 65.6324 65.1234 68.9023 65.1234 72.7994V72.7999H67.4774C67.4774 72.7998 67.4774 72.7996 67.4774 72.7994C67.4774 70.0884 69.5052 67.8148 72.1941 67.511C72.2068 67.5096 72.219 67.5067 72.2316 67.5049Z" fill="#FAFAFA"/>
<path d="M66.9601 31.3229H63.3515L63.6946 33.677H67.3032L67.1701 32.7633L66.9601 31.3229Z" fill="#D0E2ED"/>
<path d="M72.2316 67.5048L71.993 65.8678L71.8925 65.1768C70.6258 65.3262 69.463 65.7799 68.4705 66.4577L68.8709 69.2059C69.7108 68.2864 70.8722 67.6602 72.1941 67.511C72.2068 67.5095 72.219 67.5067 72.2316 67.5048Z" fill="#D0E2ED"/>
</g>
<defs>
<clipPath id="clip0">
<rect width="78" height="78" fill="white"/>
</clipPath>
</defs>
</svg>
