<svg width="50" height="50" viewBox="0 0 50 50" fill="none" xmlns="http://www.w3.org/2000/svg">
<path d="M32.9603 48.6983C32.7 48.7862 32.4379 48.8715 32.1741 48.95C32.4388 48.8707 32.7 48.7853 32.9603 48.6983Z" fill="#F9EDE0"/>
<path d="M34.2664 48.219C33.9853 48.331 33.7043 48.4414 33.4181 48.5431C33.7043 48.4405 33.9862 48.331 34.2664 48.219Z" fill="#F9EDE0"/>
<path d="M25 50C38.8071 50 50 38.8071 50 25C50 11.1929 38.8071 0 25 0C11.1929 0 0 11.1929 0 25C0 38.8071 11.1929 50 25 50Z" fill="#EFECE8"/>
<path d="M31.6698 49.0931C31.4147 49.1638 31.1578 49.231 30.8983 49.294C31.1578 49.231 31.4147 49.1638 31.6698 49.0931Z" fill="#F9EDE0"/>
<path d="M23.1888 49.9276C22.8836 49.906 22.5793 49.8827 22.2785 49.85C22.5802 49.8827 22.8845 49.906 23.1888 49.9276Z" fill="#F9EDE0"/>
<path d="M19.1009 49.2931C18.8422 49.2302 18.5853 49.1629 18.3293 49.0922C18.5853 49.1638 18.8422 49.231 19.1009 49.2931Z" fill="#F9EDE0"/>
<path d="M21.7612 49.7845C21.4879 49.7491 21.2155 49.7121 20.9448 49.6681C21.2147 49.7121 21.4879 49.7483 21.7612 49.7845Z" fill="#F9EDE0"/>
<path d="M25 50C24.5397 50 24.0836 49.9853 23.6293 49.9612C24.0836 49.9853 24.5397 50 25 50Z" fill="#F9EDE0"/>
<path d="M20.4112 49.5724C20.1491 49.5241 19.8879 49.4724 19.6293 49.4155C19.8879 49.4724 20.1491 49.5241 20.4112 49.5724Z" fill="#F9EDE0"/>
<path d="M15.3679 48.0744C14.9791 47.9115 14.5946 47.7408 14.2162 47.5598C14.5955 47.7408 14.98 47.9124 15.3679 48.0744Z" fill="#F9EDE0"/>
<path d="M16.581 48.5431C16.2957 48.4405 16.0138 48.331 15.7328 48.219C16.0138 48.331 16.2957 48.4405 16.581 48.5431Z" fill="#F9EDE0"/>
<path d="M26.3707 49.9612C25.9164 49.9853 25.4603 50 25 50C25.4603 50 25.9164 49.9853 26.3707 49.9612Z" fill="#F9EDE0"/>
<path d="M27.7216 49.85C27.4198 49.8827 27.1155 49.906 26.8112 49.9276C27.1155 49.906 27.4198 49.8827 27.7216 49.85Z" fill="#F9EDE0"/>
<path d="M30.3716 49.4155C30.1121 49.4724 29.8517 49.5241 29.5897 49.5724C29.8509 49.5241 30.1121 49.4724 30.3716 49.4155Z" fill="#F9EDE0"/>
<path d="M29.056 49.6672C28.7853 49.7112 28.5129 49.7483 28.2397 49.7836C28.5121 49.7483 28.7853 49.7121 29.056 49.6672Z" fill="#F9EDE0"/>
<path d="M35.7793 47.5612C35.4026 47.7414 35.0198 47.9121 34.6328 48.0741C35.0198 47.9121 35.4026 47.7422 35.7793 47.5612Z" fill="#F9EDE0"/>
<path d="M17.8259 48.95C17.5612 48.8707 17.3 48.7853 17.0397 48.6983C17.3 48.7853 17.5612 48.8707 17.8259 48.95Z" fill="#F9EDE0"/>
<path d="M34.6328 48.0741C34.5121 48.125 34.3888 48.1698 34.2672 48.2181C34.3879 48.1698 34.5112 48.125 34.6328 48.0741Z" fill="#F9EDE0"/>
<path d="M35.8146 47.5457C35.8031 47.551 35.7908 47.5563 35.7793 47.5616C35.7908 47.5563 35.8031 47.5519 35.8146 47.5457Z" fill="#F9EDE0"/>
<path d="M19.6284 49.4155C19.4517 49.3767 19.2759 49.3362 19.1009 49.2939C19.2759 49.3362 19.4517 49.3767 19.6284 49.4155Z" fill="#F9EDE0"/>
<path d="M20.944 49.6672C20.7655 49.6379 20.5879 49.6052 20.4104 49.5724C20.5888 49.6052 20.7655 49.6388 20.944 49.6672Z" fill="#F9EDE0"/>
<path d="M23.6293 49.9612C23.4819 49.9534 23.3353 49.9379 23.1888 49.9276C23.3362 49.9379 23.4819 49.9534 23.6293 49.9612Z" fill="#F9EDE0"/>
<path d="M22.2785 49.85C22.1052 49.831 21.9336 49.8069 21.7612 49.7845C21.9336 49.8069 22.1052 49.831 22.2785 49.85Z" fill="#F9EDE0"/>
<path d="M14.217 47.5606C14.2074 47.5562 14.1968 47.5518 14.1871 47.5474C14.1968 47.5518 14.2074 47.5562 14.217 47.5606Z" fill="#F9EDE0"/>
<path d="M26.8112 49.9276C26.6638 49.9379 26.5181 49.9534 26.3707 49.9612C26.5181 49.9534 26.6638 49.9379 26.8112 49.9276Z" fill="#F9EDE0"/>
<path d="M32.1741 48.95C32.0069 49 31.8388 49.0465 31.6698 49.0931C31.8388 49.0465 32.0069 49 32.1741 48.95Z" fill="#F9EDE0"/>
<path d="M33.419 48.5431C33.2672 48.5974 33.1138 48.6465 32.9612 48.6983C33.1138 48.6465 33.2672 48.5974 33.419 48.5431Z" fill="#F9EDE0"/>
<path d="M15.7336 48.2189C15.6121 48.1707 15.4888 48.125 15.3681 48.075C15.4888 48.125 15.6121 48.1698 15.7336 48.2189Z" fill="#F9EDE0"/>
<path d="M17.0397 48.6983C16.8871 48.6465 16.7328 48.5974 16.5819 48.5431C16.7328 48.5974 16.8862 48.6465 17.0397 48.6983Z" fill="#F9EDE0"/>
<path d="M28.2388 49.7845C28.0664 49.8069 27.8948 49.8319 27.7216 49.85C27.8948 49.831 28.0664 49.8069 28.2388 49.7845Z" fill="#F9EDE0"/>
<path d="M30.8991 49.2931C30.7241 49.3353 30.5483 49.3758 30.3716 49.4146C30.5483 49.3767 30.7241 49.3362 30.8991 49.2931Z" fill="#F9EDE0"/>
<path d="M29.5888 49.5724C29.4112 49.6052 29.2345 49.6388 29.0552 49.6672C29.2345 49.6388 29.4112 49.6052 29.5888 49.5724Z" fill="#F9EDE0"/>
<path d="M18.3302 49.0931C18.1621 49.0465 17.9931 49 17.8259 48.95C17.9931 49 18.1612 49.0465 18.3302 49.0931Z" fill="#F9EDE0"/>
<path d="M30.7224 26.7189C33.5078 24.8646 35.3448 21.7 35.3448 18.1034C35.3448 12.3905 30.7129 7.75861 25 7.75861C19.2871 7.75861 14.6552 12.3905 14.6552 18.1034C14.6552 21.7 16.4922 24.8646 19.2776 26.7189C19.2776 26.7189 19.2785 26.7198 19.2793 26.7198C19.2785 26.7198 19.2785 26.7189 19.2785 26.7189C12.6112 28.7284 7.41983 34.1396 5.74828 40.9474L5.74914 40.9482C6.02155 41.2767 6.30431 41.5974 6.5931 41.912C6.66293 41.9888 6.73621 42.062 6.80776 42.137C7.03017 42.3733 7.25517 42.606 7.48621 42.8336C7.5819 42.9276 7.67931 43.0181 7.77672 43.1103C7.99052 43.3138 8.2069 43.5146 8.42759 43.7103C8.53707 43.8069 8.64828 43.9026 8.75862 43.9974C8.975 44.1827 9.19397 44.3646 9.41724 44.5422C9.53448 44.6362 9.65259 44.7284 9.77069 44.8207C9.99655 44.9948 10.2259 45.1638 10.4578 45.3293C10.5776 45.4146 10.6957 45.5017 10.8172 45.5853C11.0621 45.7543 11.3112 45.9164 11.5621 46.0767C11.675 46.1483 11.7853 46.2224 11.8991 46.2931C12.1888 46.4715 12.4836 46.6422 12.781 46.8095C12.8595 46.8534 12.9362 46.9008 13.0155 46.9439C13.4 47.1543 13.7905 47.356 14.1871 47.5465C14.1966 47.5508 14.2069 47.5551 14.2164 47.5595C14.5948 47.7405 14.9793 47.912 15.3681 48.0741C15.4888 48.125 15.6121 48.1698 15.7336 48.2181C16.0147 48.3301 16.2957 48.4405 16.5819 48.5422C16.7336 48.5965 16.8871 48.6457 17.0397 48.6974C17.3 48.7853 17.5621 48.8707 17.8259 48.9491C17.9931 48.9991 18.1612 49.0457 18.3302 49.0922C18.5853 49.1629 18.8422 49.2301 19.1017 49.2931C19.2767 49.3353 19.4526 49.3758 19.6293 49.4146C19.8888 49.4715 20.1491 49.5232 20.4112 49.5715C20.5888 49.6043 20.7655 49.6379 20.9448 49.6664C21.2155 49.7103 21.4879 49.7474 21.7612 49.7827C21.9336 49.8051 22.1052 49.8301 22.2785 49.8483C22.5802 49.881 22.8845 49.9043 23.1888 49.9258C23.3362 49.9362 23.4819 49.9517 23.6293 49.9595C24.0836 49.9853 24.5397 50 25 50C25.4604 50 25.9164 49.9853 26.3707 49.9612C26.5181 49.9534 26.6647 49.9379 26.8112 49.9276C27.1164 49.906 27.4207 49.8827 27.7216 49.85C27.8948 49.831 28.0664 49.8069 28.2388 49.7845C28.5121 49.7491 28.7845 49.712 29.0552 49.6681C29.2336 49.6388 29.4112 49.606 29.5888 49.5732C29.8509 49.525 30.1121 49.4733 30.3707 49.4164C30.5474 49.3776 30.7233 49.337 30.8983 49.2948C31.1569 49.2319 31.4138 49.1646 31.6698 49.0939C31.8379 49.0474 32.0069 49.0008 32.1741 48.9508C32.4388 48.8715 32.7 48.7862 32.9604 48.6991C33.1129 48.6474 33.2672 48.5983 33.4181 48.5439C33.7035 48.4414 33.9854 48.3319 34.2664 48.2198C34.3879 48.1715 34.5112 48.1258 34.6319 48.0758C35.019 47.9138 35.4017 47.7439 35.7785 47.5629C35.7897 47.5577 35.8017 47.5526 35.8129 47.5474C36.2095 47.3569 36.6 47.1551 36.9845 46.9448C37.0638 46.9017 37.1405 46.8543 37.219 46.8103C37.5164 46.6431 37.8112 46.4724 38.1009 46.2939C38.2147 46.2241 38.3259 46.15 38.4379 46.0776C38.6888 45.9172 38.9379 45.7543 39.1828 45.5862C39.3035 45.5026 39.4224 45.4164 39.5422 45.3301C39.7741 45.1638 40.0035 44.9948 40.2293 44.8215C40.3483 44.7301 40.4655 44.637 40.5828 44.5431C40.8052 44.3655 41.025 44.1836 41.2414 43.9982C41.3526 43.9034 41.4638 43.8077 41.5724 43.7112C41.7931 43.5155 42.0095 43.3146 42.2233 43.1112C42.3198 43.0189 42.4181 42.9276 42.5138 42.8345C42.7448 42.6069 42.9707 42.3741 43.1922 42.1379C43.2629 42.062 43.3362 41.9888 43.4069 41.9129C43.6957 41.5983 43.9785 41.2776 44.2509 40.9491L44.2517 40.9482C42.581 34.1396 37.3897 28.7284 30.7224 26.7189Z" fill="#C6C3BD"/>
</svg>
