<svg width="25" height="25" viewBox="0 0 25 25" fill="none" xmlns="http://www.w3.org/2000/svg">
<g clip-path="url(#clip0)">
<path d="M24.7711 11.5549L15.0552 1.83845C13.646 0.429745 11.354 0.429745 9.94481 1.83845L0.228899 11.5549C-0.0762794 11.86 -0.0762794 12.3547 0.228899 12.6598C0.53359 12.965 1.02871 12.965 1.3334 12.6598L1.95304 12.0402V21.9719C1.95304 23.2124 2.95866 24.2181 4.19915 24.2181H8.10544C8.37512 24.2181 8.59373 23.9995 8.59373 23.7298V16.5031C8.59373 15.1548 9.6868 14.0617 11.0352 14.0617H13.9649C15.3132 14.0617 16.4063 15.1548 16.4063 16.5031V23.7298C16.4063 23.9995 16.6249 24.2181 16.8946 24.2181H20.8009C22.0414 24.2181 23.047 23.2124 23.047 21.9719V12.0402L23.6666 12.6598C23.819 12.8122 24.0192 12.8889 24.2189 12.8889C24.4186 12.8889 24.6188 12.8122 24.7711 12.6598C25.0763 12.3547 25.0763 11.86 24.7711 11.5549Z" fill="#6C77EB"/>
</g>
<defs>
<clipPath id="clip0">
<rect width="25" height="25" fill="white"/>
</clipPath>
</defs>
</svg>
