<svg width="25" height="25" viewBox="0 0 25 25" fill="none" xmlns="http://www.w3.org/2000/svg">
<g clip-path="url(#clip0)">
<path d="M24.4688 24.3645C24.4995 24.5186 24.4615 24.6784 24.3646 24.802C24.2656 24.9254 24.1166 24.998 23.9584 24.9999H1.0417C0.883501 24.998 0.734478 24.9254 0.635455 24.802C0.53858 24.6784 0.500543 24.5186 0.531305 24.3645L3.3334 11.4583L3.56255 10.4167L5.73959 0.406212C5.79121 0.166466 6.00483 -0.00355365 6.24999 -3.80275e-05H18.75C18.9952 -0.00355365 19.2088 0.166466 19.2604 0.406212L21.4375 10.4166L21.6666 11.4583L24.4688 24.3645Z" fill="#CFD4D9"/>
<path d="M21.4375 10.4167H17.0729C16.1771 6.98958 14.1042 6.25003 12.5 6.25003C10.2084 6.25003 8.60418 7.73963 7.92713 10.4167H3.56253L3.33338 11.4583H7.77088C7.76492 12.315 8.06399 13.1458 8.61462 13.8021C9.5802 14.9495 11.0004 15.6158 12.5 15.625C14.0162 15.6068 15.4496 14.93 16.4271 13.7708C16.9669 13.1226 17.2553 12.3017 17.2396 11.4583H21.6667L21.4375 10.4167ZM12.5 7.29168C14.2396 7.29168 15.375 8.32293 15.9896 10.4167H9.00002C9.58332 8.35418 10.75 7.29168 12.5 7.29168ZM15.6146 13.1146C14.1993 14.8333 11.6588 15.0793 9.94006 13.664C9.75017 13.5076 9.57497 13.3342 9.41667 13.1459C9.02419 12.672 8.81365 12.0736 8.82293 11.4584H16.1875C16.2067 12.0621 16.0027 12.6518 15.6146 13.1146Z" fill="#FAFAFA"/>
<path d="M18.3438 25H17.2813L16.2396 19.7916H8.76043L7.71878 25H6.65629L7.82293 19.1666C7.87245 18.9241 8.08583 18.75 8.33333 18.75H16.6667C16.9142 18.75 17.1276 18.9241 17.1771 19.1666L18.3438 25Z" fill="#FAFAFA"/>
<path d="M15.6145 3.5635C15.6456 3.71272 15.6029 3.8678 15.4999 3.98015C15.4054 4.10212 15.2584 4.1718 15.1041 4.16765H9.89583C9.74153 4.1718 9.59451 4.10212 9.49998 3.98015C9.397 3.86775 9.35438 3.71272 9.38538 3.5635L9.97913 0.00100708H11.0312L10.5104 3.126H14.4895L13.9687 0.00100708H15.0208L15.6145 3.5635Z" fill="#FAFAFA"/>
</g>
<defs>
<clipPath id="clip0">
<rect width="25" height="25" fill="white"/>
</clipPath>
</defs>
</svg>
