<svg width="78" height="78" viewBox="0 0 78 78" fill="none" xmlns="http://www.w3.org/2000/svg">
<g clip-path="url(#clip0)">
<path d="M45.5 48.6766V40.2557L32.5001 40.2556V48.6766C32.5001 49.1031 32.2134 49.4765 31.8011 49.5864L26.3916 51.0288V65.4707H39H51.6085V51.0288L46.1991 49.5864C45.7868 49.4765 45.5 49.1031 45.5 48.6766Z" fill="#F8C09C"/>
<path d="M32.4999 46.0662C34.4126 47.1731 36.6313 47.8096 39 47.8096C41.3687 47.8096 43.5874 47.1729 45.5 46.0662V40.2557L32.5001 40.2556V46.0662H32.4999Z" fill="#F8AA8B"/>
<path d="M54.6 18.2001C56.036 18.2001 57.2 19.3641 57.2 20.8001V26.0001C57.2 27.4359 56.036 28.6001 54.6 28.6001H23.4C21.964 28.6001 20.7999 27.4361 20.7999 26.0001V20.8001C20.7999 19.3643 21.964 18.2001 23.4 18.2001H54.6Z" fill="#F8AA8B"/>
<path d="M51.9999 13V31.2C51.9999 38.3798 46.1796 44.2 39 44.2C31.8204 44.2 26 38.3796 26 31.2V13H51.9999Z" fill="#F8C09C"/>
<path d="M33.7999 27.1771C33.1497 27.1771 32.6228 26.6503 32.6228 26.0001V24.7001C32.6228 24.0499 33.1497 23.5231 33.7999 23.5231C34.4501 23.5231 34.977 24.0499 34.977 24.7001V26.0001C34.977 26.6503 34.4501 27.1771 33.7999 27.1771Z" fill="#394D5C"/>
<path d="M44.2001 27.1771C43.5499 27.1771 43.023 26.6503 43.023 26.0001V24.7001C43.023 24.0499 43.5499 23.5231 44.2001 23.5231C44.8503 23.5231 45.3772 24.0499 45.3772 24.7001V26.0001C45.3772 26.6503 44.8501 27.1771 44.2001 27.1771Z" fill="#394D5C"/>
<path d="M41.5999 36.2771H36.3999C35.7497 36.2771 35.2229 35.7502 35.2229 35.1C35.2229 34.4498 35.7497 33.923 36.3999 33.923H41.5999C42.2501 33.923 42.7769 34.4498 42.7769 35.1C42.7769 35.7502 42.2501 36.2771 41.5999 36.2771Z" fill="#F8AA8B"/>
<path d="M51.6074 52.1272L54.6964 51.8524L66.3399 54.9574C68.6161 55.5644 70.2 57.626 70.2 59.9819V76.7002C70.2 77.4182 69.6179 78.0002 68.9 78.0002H9.09994C8.38194 78.0002 7.8 77.4181 7.8 76.7002V59.9817C7.8 57.6258 9.38385 55.5643 11.6601 54.9572L23.4389 51.8162L26.3918 53.3829V59.1019L38.9998 63.7L51.6084 59.1019L51.6074 52.1272Z" fill="#118DF0"/>
<path d="M46.8 5.19996H46.4417C45.9216 5.19996 45.5 4.77842 45.5 4.25831V3.90002C45.5 1.74615 43.7539 1.52588e-05 41.6 1.52588e-05H36.4001C34.2462 1.52588e-05 32.5001 1.74615 32.5001 3.90002V4.25831C32.5001 4.77842 32.0785 5.19996 31.5584 5.19996H31.2C28.3281 5.19996 26 7.52804 26 10.3999V18.1999H29.9C30.6181 18.1999 31.2 17.6178 31.2 16.9C31.2 16.182 31.7821 15.6 32.4999 15.6H45.4999C46.2179 15.6 46.7998 16.182 46.7998 16.9C46.7998 17.618 47.3818 18.1999 48.0998 18.1999H51.9998V10.3999C51.9999 7.52804 49.6719 5.19996 46.8 5.19996Z" fill="#887575"/>
<path d="M54.5664 51.8176C54.0356 59.9527 47.2692 66.3867 39 66.3867C30.7306 66.3867 23.964 59.9525 23.4336 51.8173L28.6001 50.437V50.7866C28.6001 56.5304 33.2564 61.1867 39.0001 61.1867C44.7439 61.1867 49.4002 56.5304 49.4002 50.7866V50.437L54.5664 51.8176Z" fill="#D0E2ED"/>
<path d="M61.4583 72.8001H55.5416C55.0215 72.8001 54.6 72.3785 54.6 71.8584V65.9417C54.6 65.4216 55.0215 65.0001 55.5416 65.0001H61.4583C61.9784 65.0001 62.4 65.4216 62.4 65.9417V71.8584C62.4 72.3784 61.9784 72.8001 61.4583 72.8001Z" fill="#83E85A"/>
<path d="M12.9999 71.2905C12.3497 71.2905 11.8229 70.7636 11.8229 70.1134V68.9001C11.8229 68.2499 12.3497 67.723 12.9999 67.723C13.6502 67.723 14.177 68.2499 14.177 68.9001V70.1134C14.177 70.7636 13.6502 71.2905 12.9999 71.2905Z" fill="#FDBE40"/>
<path d="M18.2001 71.2905C17.5498 71.2905 17.023 70.7636 17.023 70.1134V68.9001C17.023 68.2499 17.5498 67.723 18.2001 67.723C18.8503 67.723 19.3771 68.2499 19.3771 68.9001V70.1134C19.3771 70.7636 18.8501 71.2905 18.2001 71.2905Z" fill="#FDBE40"/>
<path d="M23.4 71.2905C22.7498 71.2905 22.2229 70.7636 22.2229 70.1134V68.9001C22.2229 68.2499 22.7498 67.723 23.4 67.723C24.0502 67.723 24.5771 68.2499 24.5771 68.9001V70.1134C24.5771 70.7636 24.05 71.2905 23.4 71.2905Z" fill="#FDBE40"/>
<path d="M46.8 5.19995H46.4415C45.9727 5.19995 45.5849 4.85688 45.5129 4.40834V9.09995C45.5129 9.75016 46.0398 10.277 46.69 10.277C47.3402 10.277 47.867 9.75016 47.867 9.09995V5.31013C47.5227 5.23825 47.1658 5.19995 46.8 5.19995Z" fill="#806666"/>
<path d="M32.4968 9.09996V4.32281C32.4635 4.81263 32.0567 5.19996 31.5585 5.19996H31.2C30.8376 5.19996 30.484 5.23716 30.1427 5.30778V9.09996C30.1427 9.75017 30.6695 10.277 31.3197 10.277C31.97 10.277 32.4968 9.75017 32.4968 9.09996Z" fill="#806666"/>
<path d="M66.3399 54.9574L62.9708 54.0589C65.1171 54.7428 66.5903 56.7405 66.5903 59.0124V76.7001C66.5903 77.4181 66.0084 78 65.2904 78H68.9001C69.6181 78 70.2 77.4179 70.2 76.7001V59.9817C70.2 57.6259 68.6161 55.5643 66.3399 54.9574Z" fill="#1179F0"/>
<path d="M61.4583 65.0001H57.8487C58.3688 65.0001 58.7903 65.4216 58.7903 65.9417V71.8584C58.7903 72.3785 58.3688 72.8001 57.8487 72.8001H61.4583C61.9784 72.8001 62.4 72.3785 62.4 71.8584V65.9417C62.4 65.4216 61.9784 65.0001 61.4583 65.0001Z" fill="#4AE048"/>
</g>
<defs>
<clipPath id="clip0">
<rect width="78" height="78" fill="white"/>
</clipPath>
</defs>
</svg>
