<svg width="78" height="78" viewBox="0 0 78 78" fill="none" xmlns="http://www.w3.org/2000/svg">
<g clip-path="url(#clip0)">
<path d="M14.5171 13.8371H63.4829V58.963H14.5171V13.8371Z" fill="#394D5C"/>
<path d="M67.9584 78H10.0416C9.52149 78 9.09995 77.5785 9.09995 77.0584V71.2515H68.8999V77.0584C68.9 77.5785 68.4783 78 67.9584 78Z" fill="#D0E2ED"/>
<path d="M65.2902 71.2515V77.0584C65.2902 77.5785 64.8687 78 64.3486 78H67.9582C68.4783 78 68.8999 77.5785 68.8999 77.0584V71.2515H65.2902Z" fill="#AABFCF"/>
<path d="M62.4 13.8371H67.6V58.963H62.4V13.8371Z" fill="#D0E2ED"/>
<path d="M67.6 13.8371V19.2096H62.4V13.8371H67.6Z" fill="#AABFCF"/>
<path d="M10.4001 13.8371H15.6V58.963H10.4001V13.8371Z" fill="#D0E2ED"/>
<path d="M15.6 13.8371V19.2096H10.4001V13.8371H15.6Z" fill="#AABFCF"/>
<path d="M49.2552 23.3421L43.0684 20.8673C42.9571 20.8227 42.8385 20.8 42.7187 20.8H35.2814C35.1617 20.8 35.0429 20.8229 34.9318 20.8673L28.7448 23.3421C28.6489 23.3804 28.5601 23.4342 28.4818 23.5014L20.1336 30.657C19.772 30.9669 19.6987 31.498 19.9628 31.8943L24.1776 38.2166C24.4661 38.6492 25.0507 38.7662 25.4834 38.4777L27.136 37.376C27.7617 36.9588 28.5999 37.4074 28.5999 38.1594V50.7C28.5999 51.418 29.182 52 29.8999 52H48.1C48.818 52 49.3999 51.418 49.3999 50.7V38.1594C49.3999 37.4074 50.2381 36.9588 50.8639 37.376L52.5164 38.4777C52.9491 38.7662 53.5337 38.6492 53.8222 38.2166L58.037 31.8943C58.3012 31.498 58.2279 30.9669 57.8663 30.657L49.5182 23.5014C49.4399 23.4342 49.3511 23.3804 49.2552 23.3421Z" fill="#118DF0"/>
<path d="M54.6 21.977H23.4C22.7498 21.977 22.2229 21.45 22.2229 20.8C22.2229 20.1499 22.7498 19.6229 23.4 19.6229H54.6C55.2502 19.6229 55.7771 20.1499 55.7771 20.8C55.7771 21.45 55.2502 21.977 54.6 21.977Z" fill="#D0E2ED"/>
<path d="M70.2 0.94165V14.3C70.2 15.0181 69.6179 15.6 68.9 15.6H9.09995C8.38194 15.6 7.8 15.0179 7.8 14.3V0.94165C7.8 0.421545 8.22155 0 8.74165 0H69.2583C69.7785 0 70.2 0.421545 70.2 0.94165Z" fill="#887575"/>
<path d="M64.0584 10.4001H13.9416C13.4215 10.4001 13 9.97851 13 9.4584V6.1416C13 5.6215 13.4215 5.19995 13.9416 5.19995H64.0582C64.5784 5.19995 64.9999 5.6215 64.9999 6.1416V9.45825C65 9.97835 64.5784 10.4001 64.0584 10.4001Z" fill="#FAFAFA"/>
<path d="M69.2583 0H65.6487C66.1688 0 66.5903 0.421545 66.5903 0.94165V14.3C66.5903 15.0181 66.0084 15.6 65.2904 15.6H68.9001C69.6181 15.6 70.2 15.0179 70.2 14.3V0.94165C70.2 0.421545 69.7785 0 69.2583 0Z" fill="#806666"/>
<path d="M62.4 15.6V19.2097H15.6V15.6H62.4Z" fill="#2C4252"/>
<path d="M64.0584 5.19995H60.4487C60.9689 5.19995 61.3904 5.6215 61.3904 6.1416V9.45825C61.3904 9.97835 60.9689 10.3999 60.4487 10.3999H64.0584C64.5785 10.3999 65.0001 9.97835 65.0001 9.45825V6.1416C65.0001 5.62165 64.5784 5.19995 64.0584 5.19995Z" fill="#F0E9E9"/>
<path d="M70.2 71.5001C70.2 72.2181 69.6179 72.8001 68.9 72.8001H9.09995C8.38194 72.8001 7.8 72.218 7.8 71.5001V58.5C7.8 57.782 8.3821 57.2001 9.09995 57.2001H68.9C69.6181 57.2001 70.2 57.782 70.2 58.5V71.5001Z" fill="#887575"/>
<path d="M64.0584 67.6H13.9416C13.4215 67.6 13 67.1784 13 66.6583V63.3417C13 62.8215 13.4215 62.4 13.9416 62.4H64.0582C64.5784 62.4 64.9999 62.8215 64.9999 63.3417V66.6583C65 67.1784 64.5784 67.6 64.0584 67.6Z" fill="#394D5C"/>
<path d="M37.823 62.4H40.1771V67.6H37.823V62.4Z" fill="#D0E2ED"/>
<path d="M68.9001 57.2001H65.2904C66.0084 57.2001 66.5903 57.782 66.5903 58.5V71.5001C66.5903 72.2181 66.0083 72.8001 65.2904 72.8001H68.9001C69.6181 72.8001 70.2 72.218 70.2 71.5001V58.5C70.2 57.782 69.6181 57.2001 68.9001 57.2001Z" fill="#806666"/>
<path d="M64.0584 62.4H60.4486C60.9687 62.4 61.3902 62.8215 61.3902 63.3417V66.6583C61.3902 67.1784 60.9687 67.6 60.4486 67.6H64.0584C64.5785 67.6 65.0001 67.1784 65.0001 66.6583V63.3417C65.0001 62.8215 64.5784 62.4 64.0584 62.4Z" fill="#2C4252"/>
<path d="M49.2552 23.3421L43.0684 20.8673C42.9571 20.8227 42.8385 20.8 42.7187 20.8H35.2814C35.1617 20.8 35.0429 20.8229 34.9318 20.8673L28.7448 23.3421C28.6489 23.3804 28.5601 23.4342 28.4818 23.5014L20.1336 30.657C19.772 30.9669 19.6987 31.498 19.9628 31.8943L24.1776 38.2166C24.4661 38.6492 25.0507 38.7662 25.4834 38.4777L27.136 37.376C27.7617 36.9588 28.5999 37.4074 28.5999 38.1594V50.7C28.5999 51.418 29.182 52 29.8999 52H48.1C48.818 52 49.3999 51.418 49.3999 50.7V38.1594C49.3999 37.4074 50.2381 36.9588 50.8639 37.376L52.5164 38.4777C52.9491 38.7662 53.5337 38.6492 53.8222 38.2166L58.037 31.8943C58.3012 31.498 58.2279 30.9669 57.8663 30.657L49.5182 23.5014C49.4399 23.4342 49.3511 23.3804 49.2552 23.3421Z" fill="#118DF0"/>
<path d="M48.9212 38.4777L47.2686 37.376C46.6429 36.9588 45.8047 37.4074 45.8047 38.1594V50.7C45.8047 51.418 45.2227 52 44.5047 52H48.1001C48.8181 52 49.4 51.418 49.4 50.7V38.6339C49.2345 38.6263 49.0691 38.5763 48.9212 38.4777Z" fill="#1179F0"/>
<path d="M57.8664 30.657L49.5182 23.5014C49.4399 23.4342 49.3509 23.3804 49.255 23.3421L43.0682 20.8673C42.957 20.8227 42.8383 20.8 42.7186 20.8H39.1232C39.243 20.8 39.3618 20.8229 39.4729 20.8673L45.6597 23.3421C45.7556 23.3804 45.8444 23.4342 45.9227 23.5014L54.2709 30.657C54.6325 30.967 54.7058 31.498 54.4417 31.8943L50.8083 37.3444C50.8268 37.3551 50.8456 37.3641 50.8639 37.3761L52.5164 38.4779C52.9491 38.7663 53.5337 38.6494 53.8222 38.2167L58.037 31.8945C58.3013 31.498 58.228 30.967 57.8664 30.657Z" fill="#1179F0"/>
<path d="M42.9 20.8C42.9 22.9538 41.1539 24.7 39 24.7C36.8461 24.7 35.1 22.9538 35.1 20.8H42.9Z" fill="#1179F0"/>
<path d="M35.1 42.7771C34.4498 42.7771 33.9229 42.2501 33.9229 41.6V32.3771H33.7999C33.1497 32.3771 32.6228 31.8501 32.6228 31.2C32.6228 30.55 33.1497 30.0229 33.7999 30.0229H35.1C35.7502 30.0229 36.2771 30.55 36.2771 31.2V41.6C36.2771 42.2501 35.7502 42.7771 35.1 42.7771Z" fill="#D0E2ED"/>
<path d="M41.5999 42.7771C39.5171 42.7771 37.823 41.0828 37.823 39V33.8001C37.823 31.7173 39.5173 30.0229 41.5999 30.0229C43.6825 30.0229 45.377 31.7173 45.377 33.8001V39C45.3772 41.0828 43.6827 42.7771 41.5999 42.7771ZM41.5999 32.3771C40.8154 32.3771 40.1771 33.0153 40.1771 33.8001V39C40.1771 39.7847 40.8154 40.423 41.5999 40.423C42.3846 40.423 43.0229 39.7847 43.0229 39V33.8001C43.0231 33.0153 42.3846 32.3771 41.5999 32.3771Z" fill="#D0E2ED"/>
<path d="M28.5999 45.6229H49.3999V47.9771H28.5999V45.6229Z" fill="#D0E2ED"/>
</g>
<defs>
<clipPath id="clip0">
<rect width="78" height="78" fill="white"/>
</clipPath>
</defs>
</svg>
