<svg width="50" height="50" viewBox="0 0 50 50" fill="none" xmlns="http://www.w3.org/2000/svg">
<g clip-path="url(#clip0)">
<path d="M48.9375 48.7291C48.999 49.0372 48.923 49.3568 48.7292 49.6041C48.5312 49.8509 48.2331 49.9961 47.9167 49.9999H2.0834C1.76699 49.9961 1.46895 49.8509 1.2709 49.6041C1.07715 49.3568 1.00108 49.0372 1.0626 48.7291L6.66679 22.9167L7.12509 20.8334L11.4792 0.812514C11.5824 0.333023 12.0096 -0.00701574 12.5 1.54977e-05H37.4999C37.9904 -0.00701574 38.4176 0.333023 38.5207 0.812514L42.8749 20.8333L43.3332 22.9166L48.9375 48.7291Z" fill="#CFD4D9"/>
<path d="M42.875 20.8334H34.1458C32.3541 13.9792 28.2083 12.5001 25 12.5001C20.4168 12.5001 17.2084 15.4793 15.8543 20.8334H7.12508L6.66678 22.9167H15.5418C15.5298 24.63 16.128 26.2916 17.2293 27.6042C19.1604 29.8991 22.0008 31.2317 25 31.25C28.0325 31.2136 30.8993 29.8601 32.8542 27.5417C33.9338 26.2452 34.5107 24.6035 34.4792 22.9167H43.3334L42.875 20.8334ZM25 14.5834C28.4792 14.5834 30.75 16.6459 31.9792 20.8334H18.0001C19.1667 16.7084 21.5001 14.5834 25 14.5834ZM31.2291 26.2293C28.3986 29.6667 23.3175 30.1586 19.8801 27.3281C19.5003 27.0153 19.15 26.6684 18.8334 26.2918C18.0484 25.344 17.6273 24.1472 17.6459 22.9168H32.375C32.4133 24.1243 32.0054 25.3036 31.2291 26.2293Z" fill="#FAFAFA"/>
<path d="M36.6875 50.0001H34.5625L32.4792 39.5834H17.5209L15.4376 50.0001H13.3126L15.6459 38.3334C15.7449 37.8483 16.1716 37.5 16.6667 37.5001H33.3333C33.8285 37.5 34.2551 37.8483 34.3541 38.3334L36.6875 50.0001Z" fill="#FAFAFA"/>
<path d="M31.2291 7.12599C31.2911 7.42443 31.2059 7.73459 30.9999 7.95929C30.8109 8.20324 30.5168 8.34259 30.2082 8.33429H19.7917C19.4831 8.34259 19.189 8.20324 19 7.95929C18.794 7.73449 18.7088 7.42443 18.7708 7.12599L19.9583 0.00100708H22.0625L21.0208 6.251H28.979L27.9373 0.00100708H30.0415L31.2291 7.12599Z" fill="#FAFAFA"/>
</g>
<defs>
<clipPath id="clip0">
<rect width="50" height="50" fill="white"/>
</clipPath>
</defs>
</svg>
